<?xml version="1.0" standalone="no"?>
<!DOCTYPE svg PUBLIC "-//W3C//DTD SVG 20010904//EN"
 "http://www.w3.org/TR/2001/REC-SVG-20010904/DTD/svg10.dtd">
<svg version="1.0" xmlns="http://www.w3.org/2000/svg"
 width="120.000000pt" height="120.000000pt" viewBox="0 0 120.000000 120.000000"
 preserveAspectRatio="xMidYMid meet">

<g transform="translate(0.000000,120.000000) scale(0.100000,-0.100000)"
fill="#000000" stroke="none">
<path d="M0 600 l0 -600 600 0 600 0 0 600 0 600 -600 0 -600 0 0 -600z m1138
128 c-3 -398 -3 -404 -27 -463 -35 -87 -109 -159 -179 -174 -34 -7 -199 -11
-467 -11 l-415 0 0 378 c0 309 3 389 15 437 29 110 110 205 191 224 22 5 229
9 462 10 l423 1 -3 -402z"/>
<path d="M256 1075 c-52 -18 -120 -86 -148 -149 -21 -46 -23 -68 -26 -243 l-4
-193 381 0 c372 0 381 0 381 -20 0 -10 -9 -24 -19 -30 -13 -6 -151 -10 -381
-10 l-361 0 3 -152 3 -153 420 0 c418 0 420 0 463 23 23 12 56 41 72 64 51 70
62 124 67 321 l5 177 -381 0 -381 0 0 35 0 35 380 0 381 0 -3 153 -3 152 -405
2 c-322 2 -413 -1 -444 -12z"/>
</g>
</svg>
